<svg width="12" height="12" viewBox="0 0 12 12" fill="none" xmlns="http://www.w3.org/2000/svg">
<path fill-rule="evenodd" clip-rule="evenodd" d="M11.7614 0.238644C11.4432 -0.0795473 10.9273 -0.0795471 10.6091 0.238644L6 4.84773L1.39091 0.238643C1.07272 -0.0795479 0.556834 -0.0795476 0.238644 0.238643C-0.0795476 0.556834 -0.0795473 1.07272 0.238644 1.39091L4.84773 6L0.238643 10.6091C-0.0795474 10.9273 -0.079548 11.4432 0.238643 11.7614C0.556834 12.0795 1.07272 12.0795 1.39091 11.7614L6 7.15227L10.6091 11.7614C10.9273 12.0795 11.4432 12.0795 11.7614 11.7614C12.0795 11.4432 12.0795 10.9273 11.7614 10.6091L7.15227 6L11.7614 1.39091C12.0795 1.07272 12.0795 0.556835 11.7614 0.238644Z" fill="currentColor"/>
</svg>
