<svg width="20" height="14" viewBox="0 0 20 14" fill="none" xmlns="http://www.w3.org/2000/svg">
<path fill-rule="evenodd" clip-rule="evenodd" d="M10.0003 0.333008C12.2732 0.333008 14.4467 1.5252 16.4722 3.48397C17.1632 4.15221 17.7883 4.86564 18.3387 5.57936C18.6708 6.01004 18.9065 6.34884 19.0356 6.55068L19.3228 6.99967L19.0356 7.44867C18.9065 7.65051 18.6708 7.98931 18.3387 8.41999C17.7883 9.13371 17.1632 9.84713 16.4722 10.5154C14.4467 12.4742 12.2732 13.6663 10.0003 13.6663C7.72731 13.6663 5.55386 12.4742 3.52836 10.5154C2.83734 9.84713 2.21219 9.13371 1.66185 8.41999C1.32977 7.98931 1.09399 7.65051 0.964901 7.44867L0.677734 6.99967L0.964901 6.55068C1.09399 6.34884 1.32977 6.01004 1.66185 5.57936C2.21219 4.86564 2.83734 4.15221 3.52836 3.48397C5.55386 1.5252 7.72731 0.333008 10.0003 0.333008ZM17.0192 6.59707C16.5153 5.94361 15.9424 5.28984 15.3139 4.68205C13.5694 2.99499 11.7548 1.99967 10.0006 1.99967C8.24639 1.99967 6.43186 2.99499 4.68732 4.68205C4.05882 5.28984 3.48594 5.94361 2.98208 6.59707C2.87325 6.7382 2.77269 6.87286 2.68076 6.99967C2.77269 7.12649 2.87325 7.26114 2.98208 7.40228C3.48594 8.05574 4.05882 8.70951 4.68732 9.3173C6.43186 11.0044 8.24639 11.9997 10.0006 11.9997C11.7548 11.9997 13.5694 11.0044 15.3139 9.3173C15.9424 8.70951 16.5153 8.05574 17.0192 7.40228C17.128 7.26114 17.2285 7.12649 17.3205 6.99967C17.2285 6.87286 17.128 6.7382 17.0192 6.59707ZM6.66674 6.99967C6.66674 8.84062 8.15912 10.333 10.0001 10.333C11.841 10.333 13.3334 8.84062 13.3334 6.99967C13.3334 5.15873 11.841 3.66634 10.0001 3.66634C8.15912 3.66634 6.66674 5.15873 6.66674 6.99967ZM11.6667 6.99967C11.6667 7.92015 10.9205 8.66634 10.0001 8.66634C9.07959 8.66634 8.3334 7.92015 8.3334 6.99967C8.3334 6.0792 9.07959 5.33301 10.0001 5.33301C10.9205 5.33301 11.6667 6.0792 11.6667 6.99967Z" fill="currentColor"/>
</svg>
