<svg width="16" height="12" viewBox="0 0 16 12" fill="none" xmlns="http://www.w3.org/2000/svg">
<path fill-rule="evenodd" clip-rule="evenodd" d="M8.00099 0.666992C9.81936 0.666992 11.5581 1.62074 13.1785 3.18776C13.7313 3.72236 14.2315 4.2931 14.6717 4.86407C14.9374 5.20862 15.126 5.47966 15.2293 5.64113L15.459 6.00033L15.2293 6.35952C15.126 6.521 14.9374 6.79203 14.6717 7.13658C14.2315 7.70755 13.7313 8.27829 13.1785 8.81289C11.5581 10.3799 9.81936 11.3337 8.00099 11.3337C6.18263 11.3337 4.44387 10.3799 2.82347 8.81289C2.27065 8.27829 1.77053 7.70755 1.33026 7.13658C1.0646 6.79203 0.875975 6.521 0.772702 6.35952L0.542969 6.00033L0.772702 5.64113C0.875975 5.47966 1.0646 5.20862 1.33026 4.86407C1.77053 4.2931 2.27065 3.72236 2.82347 3.18776C4.44387 1.62074 6.18263 0.666992 8.00099 0.666992ZM13.6161 5.67824C13.213 5.15547 12.7547 4.63246 12.2519 4.14623C10.8563 2.79658 9.40466 2.00033 8.00128 2.00033C6.59789 2.00033 5.14627 2.79658 3.75064 4.14623C3.24784 4.63246 2.78954 5.15547 2.38644 5.67824C2.29938 5.79115 2.21894 5.89887 2.14539 6.00033C2.21894 6.10178 2.29938 6.2095 2.38644 6.32241C2.78954 6.84518 3.24784 7.36819 3.75064 7.85443C5.14627 9.20408 6.59789 10.0003 8.00128 10.0003C9.40466 10.0003 10.8563 9.20408 12.2519 7.85443C12.7547 7.36819 13.213 6.84518 13.6161 6.32241C13.7032 6.2095 13.7836 6.10178 13.8572 6.00033C13.7836 5.89887 13.7032 5.79115 13.6161 5.67824ZM5.33417 6.00033C5.33417 7.47308 6.52808 8.66699 8.00084 8.66699C9.4736 8.66699 10.6675 7.47308 10.6675 6.00033C10.6675 4.52757 9.4736 3.33366 8.00084 3.33366C6.52808 3.33366 5.33417 4.52757 5.33417 6.00033ZM9.33417 6.00033C9.33417 6.7367 8.73722 7.33366 8.00084 7.33366C7.26446 7.33366 6.6675 6.7367 6.6675 6.00033C6.6675 5.26395 7.26446 4.66699 8.00084 4.66699C8.73722 4.66699 9.33417 5.26395 9.33417 6.00033Z" fill="currentColor"/>
</svg>
