<svg width="16" height="16" viewBox="0 0 16 16" fill="none" xmlns="http://www.w3.org/2000/svg">
<path fill-rule="evenodd" clip-rule="evenodd" d="M1.80555 0.862305L0.862741 1.80511L3.57275 4.51513C3.32033 4.72433 3.07052 4.94899 2.82347 5.18791C2.27065 5.7225 1.77053 6.29324 1.33026 6.86422C1.0646 7.20877 0.875975 7.4798 0.772702 7.64127L0.542969 8.00047L0.772702 8.35967C0.875975 8.52114 1.0646 8.79218 1.33026 9.13672C1.77053 9.7077 2.27065 10.2784 2.82347 10.813C4.44387 12.3801 6.18263 13.3338 8.00099 13.3338C9.14825 13.3338 10.2638 12.9541 11.338 12.2803L14.1961 15.1384L15.1389 14.1956L1.80555 0.862305ZM10.364 11.3064L9.35553 10.2979C8.95851 10.5325 8.4954 10.6671 8.00084 10.6671C6.52808 10.6671 5.33417 9.47324 5.33417 8.00048C5.33417 7.50592 5.4688 7.04281 5.70341 6.64579L4.52076 5.46313C4.26251 5.67139 4.0055 5.89964 3.75035 6.14637C3.24755 6.63261 2.78925 7.15562 2.38616 7.67839C2.2991 7.7913 2.21865 7.89902 2.1451 8.00047C2.21865 8.10192 2.2991 8.20965 2.38616 8.32255C2.78925 8.84533 3.24755 9.36834 3.75035 9.85457C5.14599 11.2042 6.59761 12.0005 8.00099 12.0005C8.77975 12.0005 9.57337 11.7553 10.364 11.3064ZM6.71268 7.65506C6.68321 7.76523 6.6675 7.88102 6.6675 8.00048C6.6675 8.73686 7.26446 9.33381 8.00084 9.33381C8.1203 9.33381 8.23609 9.3181 8.34626 9.28863L6.71268 7.65506ZM13.3996 10.5944L12.4568 9.65155C12.8796 9.22417 13.2682 8.77324 13.6158 8.32248C13.7028 8.20958 13.7833 8.10185 13.8568 8.0004C13.7833 7.89895 13.7028 7.79122 13.6158 7.67832C13.2127 7.15555 12.7544 6.63254 12.2516 6.1463C10.8559 4.79665 9.40432 4.0004 8.00094 4.0004C7.65274 4.0004 7.30157 4.04942 6.94902 4.14375L5.89437 3.0891C6.58267 2.81465 7.28564 2.66707 8.00094 2.66707C9.8193 2.66707 11.5581 3.62082 13.1785 5.18783C13.7313 5.72243 14.2314 6.29317 14.6717 6.86415C14.9373 7.20869 15.126 7.47973 15.2292 7.6412L15.459 8.0004L15.2292 8.3596C15.126 8.52107 14.9373 8.79211 14.6717 9.13665C14.2909 9.63048 13.8653 10.1241 13.3996 10.5944Z" fill="currentColor"/>
</svg>
