<svg width="20" height="18" viewBox="0 0 20 18" fill="none" xmlns="http://www.w3.org/2000/svg">
<path fill-rule="evenodd" clip-rule="evenodd" d="M2.25596 0.0771484L1.07745 1.25566L4.46497 4.64318C4.14944 4.90468 3.83718 5.1855 3.52836 5.48415C2.83734 6.1524 2.21219 6.86582 1.66185 7.57954C1.32977 8.01023 1.09399 8.34902 0.964901 8.55086L0.677734 8.99986L0.964901 9.44886C1.09399 9.6507 1.32977 9.98949 1.66185 10.4202C2.21219 11.1339 2.83734 11.8473 3.52836 12.5156C5.55386 14.4743 7.72731 15.6665 10.0003 15.6665C11.4343 15.6665 12.8288 15.1919 14.1715 14.3497L17.7441 17.9223L18.9226 16.7438L2.25596 0.0771484ZM12.9541 13.1323L11.6934 11.8716C11.1972 12.1649 10.6183 12.3332 10.0001 12.3332C8.15912 12.3332 6.66674 10.8408 6.66674 8.99987C6.66674 8.38167 6.83503 7.80278 7.12829 7.3065L5.64997 5.82818C5.32716 6.08851 5.00589 6.37381 4.68696 6.68223C4.05846 7.29003 3.48559 7.94379 2.98172 8.59725C2.8729 8.73839 2.77234 8.87304 2.6804 8.99986C2.77234 9.12667 2.8729 9.26133 2.98172 9.40246C3.48559 10.0559 4.05846 10.7097 4.68696 11.3175C6.43151 13.0045 8.24603 13.9999 10.0003 13.9999C10.9737 13.9999 11.9657 13.6934 12.9541 13.1323ZM8.38988 8.56809C8.35304 8.7058 8.3334 8.85054 8.3334 8.99987C8.3334 9.92034 9.07959 10.6665 10.0001 10.6665C10.1494 10.6665 10.2941 10.6469 10.4319 10.6101L8.38988 8.56809ZM16.7486 12.2422L15.5701 11.0637C16.0985 10.5295 16.5843 9.96581 17.0187 9.40237C17.1276 9.26124 17.2281 9.12658 17.3201 8.99977C17.2281 8.87295 17.1276 8.7383 17.0187 8.59717C16.5149 7.9437 15.942 7.28994 15.3135 6.68214C13.569 4.99508 11.7544 3.99977 10.0002 3.99977C9.56495 3.99977 9.12598 4.06104 8.6853 4.17895L7.36699 2.86064C8.22736 2.51758 9.10608 2.3331 10.0002 2.3331C12.2732 2.3331 14.4466 3.52529 16.4721 5.48406C17.1631 6.15231 17.7883 6.86573 18.3386 7.57946C18.6707 8.01014 18.9065 8.34893 19.0356 8.55077L19.3227 8.99977L19.0356 9.44877C18.9065 9.65061 18.6707 9.9894 18.3386 10.4201C17.8626 11.0374 17.3307 11.6544 16.7486 12.2422Z" fill="currentColor"/>
</svg>
