<svg width="22" height="22" viewBox="0 0 22 22" fill="none" xmlns="http://www.w3.org/2000/svg">
<g clip-path="url(#clip0_10853_44586)">
<path d="M20.625 0H1.375C0.614969 0 0 0.614969 0 1.375V20.625C0 21.385 0.614969 22 1.375 22H20.625C21.385 22 22 21.385 22 20.625V1.375C22 0.614969 21.385 0 20.625 0ZM2.75 2.75H19.25V13.9865L16.1174 10.8539C15.5805 10.318 14.7101 10.318 14.1732 10.8539L5.77672 19.25H2.75V2.75Z" fill="currentColor"/>
<path d="M8.25 11C9.76878 11 11 9.76878 11 8.25C11 6.73122 9.76878 5.5 8.25 5.5C6.73122 5.5 5.5 6.73122 5.5 8.25C5.5 9.76878 6.73122 11 8.25 11Z" fill="currentColor"/>
</g>
<defs>
<clipPath id="clip0_10853_44586">
<rect width="22" height="22" fill="white"/>
</clipPath>
</defs>
</svg>
