<svg width="20" height="20" viewBox="0 0 20 20" fill="none" xmlns="http://www.w3.org/2000/svg">
<path fill-rule="evenodd" clip-rule="evenodd" d="M3.96639 2.59933C4.26082 2.07441 4.79913 1.73913 5.39921 1.73913C6.0078 1.73913 6.56416 2.08218 6.85425 2.59933H8.37101C8.6611 2.08219 9.21751 1.73913 9.82609 1.73913C10.4431 1.73913 11.0175 2.0897 11.3033 2.59933H12.8202C13.1146 2.07441 13.6529 1.73913 14.253 1.73913C15.1448 1.73913 15.913 2.49235 15.913 3.47826C15.913 4.46417 15.1448 5.21739 14.253 5.21739C13.6529 5.21739 13.1146 4.88211 12.8202 4.35719H11.3033C11.0175 4.86682 10.4431 5.21739 9.82609 5.21739C9.21751 5.21739 8.6611 4.87433 8.37101 4.35719H6.85425C6.56416 4.87434 6.0078 5.21739 5.39921 5.21739C4.79913 5.21739 4.26082 4.88211 3.96639 4.35719C3.82267 4.10099 3.73913 3.80166 3.73913 3.47826C3.73913 3.15486 3.82267 2.85554 3.96639 2.59933ZM5.39921 0C4.12664 0 3.02991 0.713936 2.44959 1.7485C2.16283 2.2597 2 2.85135 2 3.47826C2 4.10517 2.16283 4.69682 2.44959 5.20802C2.75386 5.75044 3.20006 6.20472 3.73913 6.51417V18.6919L5.13439 20H14.5178L15.913 18.6919V16.5217C17.3537 16.5217 18.5217 15.3537 18.5217 13.913V10.4348C18.5217 8.99409 17.3537 7.82609 15.913 7.82609V6.51529C16.9574 5.91585 17.6522 4.76967 17.6522 3.47826C17.6522 1.58269 16.1554 0 14.253 0C13.4107 0 12.6454 0.312742 12.056 0.824185C11.4486 0.308753 10.6608 0 9.82609 0C8.98759 0 8.21113 0.310736 7.61264 0.824208C7.0142 0.310736 6.23772 0 5.39921 0ZM14.1739 6.95561C13.3629 6.9367 12.627 6.62773 12.056 6.13234C11.4486 6.64777 10.6608 6.95652 9.82609 6.95652C8.98759 6.95652 8.21113 6.64578 7.61264 6.13231C7.03306 6.62961 6.28646 6.93674 5.47826 6.95561V17.9386L5.82213 18.2609H13.83L14.1739 17.9386V6.95561ZM16.7826 10.4348V13.913C16.7826 14.3933 16.3933 14.7826 15.913 14.7826V9.56522C16.3933 9.56522 16.7826 9.95455 16.7826 10.4348ZM7.21739 15.6522V8.69565H8.95652V15.6522H7.21739ZM10.6957 8.69565V15.6522H12.4348V8.69565H10.6957Z" fill="currentColor"/>
</svg>
