<svg width="24" height="24" viewBox="0 0 24 24" fill="none" xmlns="http://www.w3.org/2000/svg">
<path d="M23 3.2C22.9994 2.61672 22.7674 2.05752 22.3549 1.64508C21.9425 1.23264 21.3833 1.00065 20.8 1H3.2C2.66568 1.00012 2.14987 1.19571 1.74981 1.54989C1.71301 1.57949 1.6778 1.61101 1.64432 1.64431C1.61098 1.67777 1.57946 1.71298 1.54989 1.7498C1.19571 2.14987 1.00012 2.66568 1 3.2V20.8C1.00065 21.3833 1.23264 21.9425 1.64508 22.3549C2.05752 22.7674 2.61672 22.9994 3.2 23H20.8C21.3343 22.9999 21.8501 22.8043 22.2502 22.4501C22.324 22.3911 22.3911 22.324 22.4501 22.2502C22.8043 21.8501 22.9999 21.3343 23 20.8V3.2ZM20.36 18.4932L5.50678 3.64H20.36V18.4932ZM3.64 5.50678L18.4932 20.36H3.64V5.50678Z" fill="currentColor"/>
</svg>
