<svg width="20" height="20" viewBox="0 0 20 20" fill="none" xmlns="http://www.w3.org/2000/svg">
<path fill-rule="evenodd" clip-rule="evenodd" d="M15.219 8.9194C15.218 5.4434 12.394 2.61841 8.91804 2.61541C5.44204 2.61341 2.61404 5.4354 2.60904 8.9114C2.60504 12.3964 5.43504 15.2284 8.92004 15.2254C12.395 15.2234 15.22 12.3944 15.219 8.9194ZM16.073 14.2394C17.084 15.2494 18.085 16.2494 19.086 17.2484C19.246 17.4084 19.406 17.5674 19.566 17.7284C20.12 18.2854 20.136 19.0984 19.605 19.6234C19.079 20.1424 18.274 20.1234 17.725 19.5764C16.619 18.4714 15.514 17.3654 14.41 16.2584C14.35 16.1994 14.305 16.1254 14.257 16.0644C10.269 19.0084 4.87604 18.1314 1.96404 14.4984C-0.88396 10.9464 -0.61296 5.81341 2.63604 2.60141C5.90304 -0.627595 10.963 -0.880595 14.535 2.01041C18.164 4.9454 18.97 10.3034 16.073 14.2394Z" fill="currentColor"/>
</svg>
