<svg width="24" height="24" viewBox="0 0 24 24" fill="none" xmlns="http://www.w3.org/2000/svg">
<path fill-rule="evenodd" clip-rule="evenodd" d="M23.9243 10.6675C23.8863 10.3302 23.493 10.0767 23.1529 10.0767C22.0532 10.0767 21.0773 9.43094 20.6681 8.43233C20.25 7.40952 20.5196 6.21668 21.3391 5.46489C21.5971 5.22906 21.6285 4.83427 21.4121 4.56004C20.8493 3.8453 20.2095 3.19968 19.511 2.64015C19.2375 2.42065 18.8362 2.45119 18.599 2.71382C17.8838 3.50597 16.599 3.80039 15.6062 3.38614C14.573 2.95153 13.9215 1.90461 13.9852 0.780798C14.0062 0.427806 13.7482 0.120891 13.3963 0.0799036C12.5 -0.0237706 11.5957 -0.0269853 10.6967 0.0727598C10.3488 0.111158 10.0908 0.410839 10.1025 0.759367C10.1416 1.8721 9.48224 2.90072 8.45934 3.3197C7.4784 3.72038 6.20261 3.42846 5.48877 2.64336C5.25285 2.38476 4.85806 2.35297 4.5832 2.56719C3.864 3.13146 3.2099 3.77762 2.64188 4.48646C2.42033 4.76203 2.45293 5.16146 2.7135 5.39854C3.5487 6.15489 3.81837 7.35808 3.38448 8.39268C2.97023 9.37906 1.94599 10.0148 0.773423 10.0148C0.392927 10.0025 0.12191 10.2579 0.080297 10.6039C-0.0252524 11.5054 -0.0265026 12.424 0.0751178 13.3329C0.112801 13.6717 0.518122 13.923 0.862006 13.923C1.90696 13.8963 2.91022 14.5432 3.33108 15.5674C3.7506 16.5902 3.48092 17.7823 2.6601 18.5347C2.40337 18.7705 2.37077 19.1647 2.58714 19.4389C3.14471 20.1491 3.78453 20.7954 4.48551 21.3595C4.76046 21.5811 5.16051 21.5498 5.39885 21.2872C6.1168 20.4931 7.40152 20.1992 8.3904 20.6143C9.42616 21.0475 10.0777 22.0944 10.0139 23.2188C9.99311 23.572 10.2523 23.8794 10.6028 23.9198C11.0614 23.9733 11.5227 24 11.9852 24C12.4243 24 12.8635 23.9759 13.3026 23.927C13.6505 23.8886 13.9083 23.5889 13.8967 23.2398C13.8564 22.1277 14.5169 21.0991 15.5385 20.6808C16.526 20.2774 17.7964 20.5727 18.5104 21.357C18.7476 21.615 19.1397 21.6462 19.416 21.4327C20.1339 20.8698 20.7867 20.2241 21.3574 19.5133C21.5788 19.2384 21.5476 18.8383 21.2856 18.6013C20.4505 17.845 20.1794 16.6416 20.6133 15.6077C21.0212 14.6345 22.0074 13.981 23.0682 13.981L23.2166 13.9848C23.5607 14.0128 23.8772 13.7478 23.9189 13.3965C24.0247 12.4942 24.0259 11.5764 23.9243 10.6675ZM12.0187 16.0281C9.81148 16.0281 8.01606 14.2326 8.01606 12.0254C8.01606 9.81823 9.81148 8.02272 12.0187 8.02272C14.2259 8.02272 16.0213 9.81823 16.0213 12.0254C16.0213 14.2326 14.2259 16.0281 12.0187 16.0281Z" fill="currentColor"/>
</svg>
